<svg xmlns="http://www.w3.org/2000/svg" viewBox="0 0 512 512">
<rect width="512" height="512" rx="112" fill="#15100c"/>
<g transform="translate(256 256) scale(0.98)">
  <g transform="rotate(-35)">
    <g fill="#c9963e" stroke="#c9963e" stroke-width="20" stroke-linejoin="round"><rect x="-150" y="-30" width="300" height="60" rx="8" /><circle cx="-150" cy="-36" r="46" /><circle cx="-150" cy="36" r="46" /><circle cx="150" cy="-36" r="46" /><circle cx="150" cy="36" r="46" /></g>
    <g fill="#f3e7cc"><rect x="-150" y="-30" width="300" height="60" rx="8" /><circle cx="-150" cy="-36" r="46" /><circle cx="-150" cy="36" r="46" /><circle cx="150" cy="-36" r="46" /><circle cx="150" cy="36" r="46" /></g>
    <rect x="-118" y="-12" width="236" height="10" rx="5" fill="#ffffff" opacity="0.35"/>
  </g>
  <path transform="translate(0 6) scale(1.25)" d="M0 52 C-26 34 -66 8 -66 -22 C-66 -46 -48 -60 -30 -60 C-14 -60 -4 -50 0 -40 C4 -50 14 -60 30 -60 C48 -60 66 -46 66 -22 C66 8 26 34 0 52 Z" fill="#e2a93b" stroke="#15100c" stroke-width="12" stroke-linejoin="round"/>
</g>
</svg>
