<svg xmlns="http://www.w3.org/2000/svg" viewBox="0 0 400 500" role="img" aria-label="Male portrait placeholder">
  <defs>
    <linearGradient id="skin" x1="0" y1="0" x2="0" y2="1">
      <stop offset="0" stop-color="#efe3cb"/>
      <stop offset="1" stop-color="#d8c29a"/>
    </linearGradient>
    <linearGradient id="hair" x1="0" y1="0" x2="0" y2="1">
      <stop offset="0" stop-color="#c9a35a"/>
      <stop offset="1" stop-color="#9c7a3c"/>
    </linearGradient>
    <linearGradient id="cloak" x1="0" y1="0" x2="0" y2="1">
      <stop offset="0" stop-color="#c9a35a"/>
      <stop offset="1" stop-color="#8a6a33"/>
    </linearGradient>
  </defs>
  <path d="M170 312h60v76h-60z" fill="#d8c29a"/>
  <path d="M26 500c4-80 70-116 136-126 22 16 54 16 76 0 66 10 132 46 136 126z" fill="url(#cloak)"/>
  <ellipse cx="129" cy="226" rx="12" ry="20" fill="#dfcba6"/>
  <ellipse cx="271" cy="226" rx="12" ry="20" fill="#dfcba6"/>
  <path d="M130 214c0-62 30-100 70-100s70 38 70 100c0 60-30 100-70 100s-70-40-70-100z" fill="url(#skin)"/>
  <path d="M128 214c-6-74 30-118 72-118s78 44 72 118c-8-30-20-48-34-56-26 6-56 6-82-2-14 10-24 30-28 58z" fill="url(#hair)"/>
</svg>
